<svg xmlns="http://www.w3.org/2000/svg" width="1480" height="2100" viewBox="0 0 1480 2100"><defs><marker id="ar" markerWidth="10" markerHeight="10" refX="9" refY="5" orient="auto"><path d="M0,0 L10,5 L0,10 Z" fill="#1a1a1a"/></marker></defs><rect x="0" y="0" width="2960" height="2100" fill="#f7f5f0"/>
<rect x="55" y="55" width="2850" height="1990" fill="none" stroke="#1a1a1a" stroke-width="4"/>
<rect x="80" y="80" width="2800" height="1940" fill="none" stroke="#1a1a1a" stroke-width="1.2"/>
<text x="740" y="190" font-family="Georgia,serif" font-size="66" font-style="normal" fill="#1a1a1a" text-anchor="middle">MALLAM TOWN</text>
<text x="740" y="258" font-family="Georgia,serif" font-size="28" font-style="italic" fill="#555" text-anchor="middle">a township in the Greater Accra Region</text>
<line x1="470" y1="290" x2="1010" y2="290" stroke="#1a1a1a" stroke-width="1.6"/>
<rect x="80" y="1380" width="2800" height="140" fill="#e2ded4" stroke="#1a1a1a" stroke-width="2"/>
<line x1="120" y1="1450" x2="162" y2="1450" stroke="#9a958a" stroke-width="3"/>
<line x1="200" y1="1450" x2="242" y2="1450" stroke="#9a958a" stroke-width="3"/>
<line x1="280" y1="1450" x2="322" y2="1450" stroke="#9a958a" stroke-width="3"/>
<line x1="360" y1="1450" x2="402" y2="1450" stroke="#9a958a" stroke-width="3"/>
<line x1="440" y1="1450" x2="482" y2="1450" stroke="#9a958a" stroke-width="3"/>
<line x1="520" y1="1450" x2="562" y2="1450" stroke="#9a958a" stroke-width="3"/>
<line x1="600" y1="1450" x2="642" y2="1450" stroke="#9a958a" stroke-width="3"/>
<line x1="680" y1="1450" x2="722" y2="1450" stroke="#9a958a" stroke-width="3"/>
<line x1="760" y1="1450" x2="802" y2="1450" stroke="#9a958a" stroke-width="3"/>
<line x1="840" y1="1450" x2="882" y2="1450" stroke="#9a958a" stroke-width="3"/>
<line x1="920" y1="1450" x2="962" y2="1450" stroke="#9a958a" stroke-width="3"/>
<line x1="1000" y1="1450" x2="1042" y2="1450" stroke="#9a958a" stroke-width="3"/>
<line x1="1080" y1="1450" x2="1122" y2="1450" stroke="#9a958a" stroke-width="3"/>
<line x1="1160" y1="1450" x2="1202" y2="1450" stroke="#9a958a" stroke-width="3"/>
<line x1="1240" y1="1450" x2="1282" y2="1450" stroke="#9a958a" stroke-width="3"/>
<line x1="1320" y1="1450" x2="1362" y2="1450" stroke="#9a958a" stroke-width="3"/>
<line x1="1400" y1="1450" x2="1442" y2="1450" stroke="#9a958a" stroke-width="3"/>
<line x1="1480" y1="1450" x2="1522" y2="1450" stroke="#9a958a" stroke-width="3"/>
<line x1="1560" y1="1450" x2="1602" y2="1450" stroke="#9a958a" stroke-width="3"/>
<line x1="1640" y1="1450" x2="1682" y2="1450" stroke="#9a958a" stroke-width="3"/>
<line x1="1720" y1="1450" x2="1762" y2="1450" stroke="#9a958a" stroke-width="3"/>
<line x1="1800" y1="1450" x2="1842" y2="1450" stroke="#9a958a" stroke-width="3"/>
<line x1="1880" y1="1450" x2="1922" y2="1450" stroke="#9a958a" stroke-width="3"/>
<line x1="1960" y1="1450" x2="2002" y2="1450" stroke="#9a958a" stroke-width="3"/>
<line x1="2040" y1="1450" x2="2082" y2="1450" stroke="#9a958a" stroke-width="3"/>
<line x1="2120" y1="1450" x2="2162" y2="1450" stroke="#9a958a" stroke-width="3"/>
<line x1="2200" y1="1450" x2="2242" y2="1450" stroke="#9a958a" stroke-width="3"/>
<line x1="2280" y1="1450" x2="2322" y2="1450" stroke="#9a958a" stroke-width="3"/>
<line x1="2360" y1="1450" x2="2402" y2="1450" stroke="#9a958a" stroke-width="3"/>
<line x1="2440" y1="1450" x2="2482" y2="1450" stroke="#9a958a" stroke-width="3"/>
<line x1="2520" y1="1450" x2="2562" y2="1450" stroke="#9a958a" stroke-width="3"/>
<line x1="2600" y1="1450" x2="2642" y2="1450" stroke="#9a958a" stroke-width="3"/>
<line x1="2680" y1="1450" x2="2722" y2="1450" stroke="#9a958a" stroke-width="3"/>
<line x1="2760" y1="1450" x2="2802" y2="1450" stroke="#9a958a" stroke-width="3"/>
<rect x="1074" y="1418" width="152" height="38" fill="#f7f5f0"/>
<text x="1150" y="1450" font-family="Georgia,serif" font-size="30" font-style="normal" fill="#1a1a1a" text-anchor="middle">MAIN ROAD</text>
<rect x="200" y="700" width="400" height="400" fill="#efece3" stroke="#1a1a1a" stroke-width="2"/>
<rect x="228" y="730" width="56" height="48" fill="#ebe7de" stroke="#1a1a1a" stroke-width="1.2"/>
<rect x="322" y="730" width="56" height="48" fill="#ebe7de" stroke="#1a1a1a" stroke-width="1.2"/>
<rect x="416" y="730" width="56" height="48" fill="#ebe7de" stroke="#1a1a1a" stroke-width="1.2"/>
<rect x="510" y="730" width="56" height="48" fill="#ebe7de" stroke="#1a1a1a" stroke-width="1.2"/>
<rect x="228" y="848" width="56" height="48" fill="#ebe7de" stroke="#1a1a1a" stroke-width="1.2"/>
<rect x="322" y="848" width="56" height="48" fill="#ebe7de" stroke="#1a1a1a" stroke-width="1.2"/>
<rect x="416" y="848" width="56" height="48" fill="#ebe7de" stroke="#1a1a1a" stroke-width="1.2"/>
<rect x="510" y="848" width="56" height="48" fill="#ebe7de" stroke="#1a1a1a" stroke-width="1.2"/>
<rect x="228" y="966" width="56" height="48" fill="#ebe7de" stroke="#1a1a1a" stroke-width="1.2"/>
<rect x="322" y="966" width="56" height="48" fill="#ebe7de" stroke="#1a1a1a" stroke-width="1.2"/>
<rect x="416" y="966" width="56" height="48" fill="#ebe7de" stroke="#1a1a1a" stroke-width="1.2"/>
<rect x="510" y="966" width="56" height="48" fill="#ebe7de" stroke="#1a1a1a" stroke-width="1.2"/>
<text x="400" y="660" font-family="Georgia,serif" font-size="32" font-style="normal" fill="#1a1a1a" text-anchor="middle">MARKET</text>
<rect x="255" y="1180" width="500" height="190" fill="#ebe7de" stroke="#1a1a1a" stroke-width="2.4"/>
<rect x="283" y="1212" width="104" height="46" rx="12" fill="#f7f5f0" stroke="#1a1a1a" stroke-width="1.8"/>
<line x1="307" y1="1258" x2="315" y2="1258" stroke="#1a1a1a" stroke-width="3.5"/>
<line x1="355" y1="1258" x2="363" y2="1258" stroke="#1a1a1a" stroke-width="3.5"/>
<rect x="407" y="1212" width="104" height="46" rx="12" fill="#f7f5f0" stroke="#1a1a1a" stroke-width="1.8"/>
<line x1="431" y1="1258" x2="439" y2="1258" stroke="#1a1a1a" stroke-width="3.5"/>
<line x1="479" y1="1258" x2="487" y2="1258" stroke="#1a1a1a" stroke-width="3.5"/>
<rect x="531" y="1212" width="104" height="46" rx="12" fill="#f7f5f0" stroke="#1a1a1a" stroke-width="1.8"/>
<line x1="555" y1="1258" x2="563" y2="1258" stroke="#1a1a1a" stroke-width="3.5"/>
<line x1="603" y1="1258" x2="611" y2="1258" stroke="#1a1a1a" stroke-width="3.5"/>
<rect x="283" y="1300" width="104" height="46" rx="12" fill="#f7f5f0" stroke="#1a1a1a" stroke-width="1.8"/>
<line x1="307" y1="1346" x2="315" y2="1346" stroke="#1a1a1a" stroke-width="3.5"/>
<line x1="355" y1="1346" x2="363" y2="1346" stroke="#1a1a1a" stroke-width="3.5"/>
<rect x="407" y="1300" width="104" height="46" rx="12" fill="#f7f5f0" stroke="#1a1a1a" stroke-width="1.8"/>
<line x1="431" y1="1346" x2="439" y2="1346" stroke="#1a1a1a" stroke-width="3.5"/>
<line x1="479" y1="1346" x2="487" y2="1346" stroke="#1a1a1a" stroke-width="3.5"/>
<rect x="531" y="1300" width="104" height="46" rx="12" fill="#f7f5f0" stroke="#1a1a1a" stroke-width="1.8"/>
<line x1="555" y1="1346" x2="563" y2="1346" stroke="#1a1a1a" stroke-width="3.5"/>
<line x1="603" y1="1346" x2="611" y2="1346" stroke="#1a1a1a" stroke-width="3.5"/>
<text x="505" y="1150" font-family="Georgia,serif" font-size="32" font-style="normal" fill="#1a1a1a" text-anchor="middle">THE TAXI RANK</text>
<rect x="795" y="1230" width="160" height="140" fill="#ebe7de" stroke="#1a1a1a" stroke-width="2"/>
<line x1="795" y1="1230" x2="795" y2="1370" stroke="#1a1a1a" stroke-width="1.2"/>
<line x1="821" y1="1230" x2="821" y2="1370" stroke="#1a1a1a" stroke-width="1.2"/>
<line x1="847" y1="1230" x2="847" y2="1370" stroke="#1a1a1a" stroke-width="1.2"/>
<line x1="873" y1="1230" x2="873" y2="1370" stroke="#1a1a1a" stroke-width="1.2"/>
<line x1="899" y1="1230" x2="899" y2="1370" stroke="#1a1a1a" stroke-width="1.2"/>
<line x1="925" y1="1230" x2="925" y2="1370" stroke="#1a1a1a" stroke-width="1.2"/>
<text x="875" y="1200" font-family="Georgia,serif" font-size="25" font-style="italic" fill="#555" text-anchor="middle">the blue container</text>
<rect x="105" y="1230" width="120" height="110" fill="#ebe7de" stroke="#1a1a1a" stroke-width="2"/>
<text x="165" y="1170" font-family="Georgia,serif" font-size="25" font-style="italic" fill="#555" text-anchor="middle">MTN kiosk</text>
<rect x="400" y="700" width="300" height="230" fill="#ebe7de" stroke="#1a1a1a" stroke-width="2.4"/>
<rect x="460" y="755" width="180" height="120" fill="#f7f5f0" stroke="#1a1a1a" stroke-width="1.3"/>
<line x1="475" y1="700" x2="475" y2="755" stroke="#1a1a1a" stroke-width="1.3"/>
<line x1="475" y1="875" x2="475" y2="930" stroke="#1a1a1a" stroke-width="1.3"/>
<line x1="550" y1="700" x2="550" y2="755" stroke="#1a1a1a" stroke-width="1.3"/>
<line x1="550" y1="875" x2="550" y2="930" stroke="#1a1a1a" stroke-width="1.3"/>
<line x1="625" y1="700" x2="625" y2="755" stroke="#1a1a1a" stroke-width="1.3"/>
<line x1="625" y1="875" x2="625" y2="930" stroke="#1a1a1a" stroke-width="1.3"/>
<line x1="400" y1="755" x2="460" y2="755" stroke="#1a1a1a" stroke-width="1.3"/>
<line x1="640" y1="755" x2="700" y2="755" stroke="#1a1a1a" stroke-width="1.3"/>
<line x1="400" y1="875" x2="460" y2="875" stroke="#1a1a1a" stroke-width="1.3"/>
<line x1="640" y1="875" x2="700" y2="875" stroke="#1a1a1a" stroke-width="1.3"/>
<circle cx="526" cy="930" r="4.5" fill="#1a1a1a"/>
<circle cx="574" cy="930" r="4.5" fill="#1a1a1a"/>
<rect x="985" y="950" width="290" height="400" fill="#ebe7de" stroke="#1a1a1a" stroke-width="2.4"/>
<rect x="1043" y="1046" width="174" height="208" fill="#f7f5f0" stroke="#1a1a1a" stroke-width="1.3"/>
<line x1="1058" y1="950" x2="1058" y2="1046" stroke="#1a1a1a" stroke-width="1.3"/>
<line x1="1058" y1="1254" x2="1058" y2="1350" stroke="#1a1a1a" stroke-width="1.3"/>
<line x1="1130" y1="950" x2="1130" y2="1046" stroke="#1a1a1a" stroke-width="1.3"/>
<line x1="1130" y1="1254" x2="1130" y2="1350" stroke="#1a1a1a" stroke-width="1.3"/>
<line x1="1202" y1="950" x2="1202" y2="1046" stroke="#1a1a1a" stroke-width="1.3"/>
<line x1="1202" y1="1254" x2="1202" y2="1350" stroke="#1a1a1a" stroke-width="1.3"/>
<line x1="985" y1="1046" x2="1043" y2="1046" stroke="#1a1a1a" stroke-width="1.3"/>
<line x1="1217" y1="1046" x2="1275" y2="1046" stroke="#1a1a1a" stroke-width="1.3"/>
<line x1="985" y1="1254" x2="1043" y2="1254" stroke="#1a1a1a" stroke-width="1.3"/>
<line x1="1217" y1="1254" x2="1275" y2="1254" stroke="#1a1a1a" stroke-width="1.3"/>
<circle cx="1106" cy="1350" r="4.5" fill="#1a1a1a"/>
<circle cx="1154" cy="1350" r="4.5" fill="#1a1a1a"/>
<text x="1130.0" y="910" font-family="Georgia,serif" font-size="32" font-style="normal" fill="#1a1a1a" text-anchor="middle">the compound house</text>
<line x1="1130" y1="1350" x2="1130" y2="1386" stroke="#1a1a1a" stroke-width="1.6"/>
<text x="1130" y="870" font-family="Georgia,serif" font-size="25" font-style="italic" fill="#1a1a1a" text-anchor="middle">◆ the gate that screams</text>
<line x1="1300" y1="950" x2="1300" y2="1380" stroke="#1a1a1a" stroke-width="1.6" stroke-dasharray="12 9"/>
<line x1="1380" y1="950" x2="1380" y2="1380" stroke="#1a1a1a" stroke-width="1.6" stroke-dasharray="12 9"/>
<text x="1335" y="940" font-family="Georgia,serif" font-size="25" font-style="italic" fill="#555" text-anchor="middle">the alley</text>
<path d="M620,1620 L200,1620" stroke="#1a1a1a" stroke-width="4" marker-end="url(#ar)"/>
<text x="410" y="1580" font-family="Georgia,serif" font-size="32" font-style="italic" fill="#1a1a1a" text-anchor="middle">to Accra</text>
<text x="410" y="1650" font-family="Georgia,serif" font-size="25" font-style="italic" fill="#555" text-anchor="middle">Agbogbloshie lies this way</text>
<text x="740" y="1710" font-family="Georgia,serif" font-size="25" font-style="italic" fill="#555" text-anchor="middle">Nene's compound and the police post stand on</text>
<text x="740" y="1750" font-family="Georgia,serif" font-size="25" font-style="italic" fill="#555" text-anchor="middle">opposite sides of the main road. That is why she</text>
<text x="740" y="1790" font-family="Georgia,serif" font-size="25" font-style="italic" fill="#555" text-anchor="middle">walks Kwame as far as the road — and no further.</text>
<rect x="1640" y="950" width="330" height="400" fill="#ebe7de" stroke="#1a1a1a" stroke-width="2.4"/>
<rect x="1706" y="1046" width="198" height="208" fill="#f7f5f0" stroke="#1a1a1a" stroke-width="1.3"/>
<line x1="1722" y1="950" x2="1722" y2="1046" stroke="#1a1a1a" stroke-width="1.3"/>
<line x1="1722" y1="1254" x2="1722" y2="1350" stroke="#1a1a1a" stroke-width="1.3"/>
<line x1="1805" y1="950" x2="1805" y2="1046" stroke="#1a1a1a" stroke-width="1.3"/>
<line x1="1805" y1="1254" x2="1805" y2="1350" stroke="#1a1a1a" stroke-width="1.3"/>
<line x1="1888" y1="950" x2="1888" y2="1046" stroke="#1a1a1a" stroke-width="1.3"/>
<line x1="1888" y1="1254" x2="1888" y2="1350" stroke="#1a1a1a" stroke-width="1.3"/>
<line x1="1640" y1="1046" x2="1706" y2="1046" stroke="#1a1a1a" stroke-width="1.3"/>
<line x1="1904" y1="1046" x2="1970" y2="1046" stroke="#1a1a1a" stroke-width="1.3"/>
<line x1="1640" y1="1254" x2="1706" y2="1254" stroke="#1a1a1a" stroke-width="1.3"/>
<line x1="1904" y1="1254" x2="1970" y2="1254" stroke="#1a1a1a" stroke-width="1.3"/>
<circle cx="1781" cy="1350" r="4.5" fill="#1a1a1a"/>
<circle cx="1829" cy="1350" r="4.5" fill="#1a1a1a"/>
<text x="1805.0" y="910" font-family="Georgia,serif" font-size="32" font-style="normal" fill="#1a1a1a" text-anchor="middle">Nene's compound</text>
<path d="M2050,1380 L2100,850 L2160,850 L2115,1380 Z" fill="#e2ded4" stroke="#1a1a1a" stroke-width="2"/>
<text x="2190" y="790" font-family="Georgia,serif" font-size="32" font-style="normal" fill="#1a1a1a" text-anchor="middle">DANGEROUS LANE</text>
<text x="2190" y="830" font-family="Georgia,serif" font-size="25" font-style="italic" fill="#555" text-anchor="middle">the road where the streetlights give up</text>
<circle cx="2110" cy="1120" r="9" fill="#1a1a1a"/>
<rect x="2039" y="1053" width="142" height="33" fill="#f7f5f0"/>
<text x="2110" y="1080" font-family="Georgia,serif" font-size="25" font-style="italic" fill="#555" text-anchor="middle">the gutter</text>
<rect x="2180" y="850" width="440" height="480" fill="#efece3" stroke="#1a1a1a" stroke-width="3"/>
<rect x="2174" y="844" width="452" height="492" fill="none" stroke="#1a1a1a" stroke-width="1.4" stroke-dasharray="7 6"/>
<rect x="2212" y="930" width="28" height="44" rx="12" fill="#f7f5f0" stroke="#1a1a1a" stroke-width="1.6"/>
<rect x="2280" y="930" width="28" height="44" rx="12" fill="#f7f5f0" stroke="#1a1a1a" stroke-width="1.6"/>
<rect x="2348" y="930" width="28" height="44" rx="12" fill="#f7f5f0" stroke="#1a1a1a" stroke-width="1.6"/>
<rect x="2416" y="930" width="28" height="44" rx="12" fill="#f7f5f0" stroke="#1a1a1a" stroke-width="1.6"/>
<rect x="2484" y="930" width="28" height="44" rx="12" fill="#f7f5f0" stroke="#1a1a1a" stroke-width="1.6"/>
<rect x="2552" y="930" width="28" height="44" rx="12" fill="#f7f5f0" stroke="#1a1a1a" stroke-width="1.6"/>
<rect x="2212" y="1060" width="28" height="44" rx="12" fill="#f7f5f0" stroke="#1a1a1a" stroke-width="1.6"/>
<rect x="2280" y="1060" width="28" height="44" rx="12" fill="#f7f5f0" stroke="#1a1a1a" stroke-width="1.6"/>
<rect x="2348" y="1060" width="28" height="44" rx="12" fill="#f7f5f0" stroke="#1a1a1a" stroke-width="1.6"/>
<rect x="2416" y="1060" width="28" height="44" rx="12" fill="#f7f5f0" stroke="#1a1a1a" stroke-width="1.6"/>
<rect x="2484" y="1060" width="28" height="44" rx="12" fill="#f7f5f0" stroke="#1a1a1a" stroke-width="1.6"/>
<rect x="2552" y="1060" width="28" height="44" rx="12" fill="#f7f5f0" stroke="#1a1a1a" stroke-width="1.6"/>
<rect x="2212" y="1190" width="28" height="44" rx="12" fill="#f7f5f0" stroke="#1a1a1a" stroke-width="1.6"/>
<rect x="2280" y="1190" width="28" height="44" rx="12" fill="#f7f5f0" stroke="#1a1a1a" stroke-width="1.6"/>
<rect x="2348" y="1190" width="28" height="44" rx="12" fill="#f7f5f0" stroke="#1a1a1a" stroke-width="1.6"/>
<rect x="2416" y="1190" width="28" height="44" rx="12" fill="#f7f5f0" stroke="#1a1a1a" stroke-width="1.6"/>
<rect x="2484" y="1190" width="28" height="44" rx="12" fill="#f7f5f0" stroke="#1a1a1a" stroke-width="1.6"/>
<rect x="2552" y="1190" width="28" height="44" rx="12" fill="#f7f5f0" stroke="#1a1a1a" stroke-width="1.6"/>
<text x="2400" y="890" font-family="Georgia,serif" font-size="32" font-style="normal" fill="#1a1a1a" text-anchor="middle">THE CEMETERY</text>
<line x1="2260" y1="670" x2="2260" y2="712" stroke="#1a1a1a" stroke-width="3"/>
<circle cx="2288" cy="660" r="17" fill="#efece3" stroke="#1a1a1a" stroke-width="1.6"/>
<circle cx="2257" cy="674" r="17" fill="#efece3" stroke="#1a1a1a" stroke-width="1.6"/>
<circle cx="2231" cy="657" r="17" fill="#efece3" stroke="#1a1a1a" stroke-width="1.6"/>
<circle cx="2232" cy="620" r="17" fill="#efece3" stroke="#1a1a1a" stroke-width="1.6"/>
<circle cx="2263" cy="606" r="17" fill="#efece3" stroke="#1a1a1a" stroke-width="1.6"/>
<circle cx="2289" cy="623" r="17" fill="#efece3" stroke="#1a1a1a" stroke-width="1.6"/>
<circle cx="2260" cy="640" r="30" fill="#efece3" stroke="#1a1a1a" stroke-width="2"/>
<line x1="2380" y1="673" x2="2380" y2="719" stroke="#1a1a1a" stroke-width="3"/>
<circle cx="2411" cy="661" r="19" fill="#efece3" stroke="#1a1a1a" stroke-width="1.6"/>
<circle cx="2377" cy="677" r="19" fill="#efece3" stroke="#1a1a1a" stroke-width="1.6"/>
<circle cx="2348" cy="659" r="19" fill="#efece3" stroke="#1a1a1a" stroke-width="1.6"/>
<circle cx="2349" cy="619" r="19" fill="#efece3" stroke="#1a1a1a" stroke-width="1.6"/>
<circle cx="2383" cy="603" r="19" fill="#efece3" stroke="#1a1a1a" stroke-width="1.6"/>
<circle cx="2412" cy="621" r="19" fill="#efece3" stroke="#1a1a1a" stroke-width="1.6"/>
<circle cx="2380" cy="640" r="33" fill="#efece3" stroke="#1a1a1a" stroke-width="2"/>
<line x1="2500" y1="668" x2="2500" y2="708" stroke="#1a1a1a" stroke-width="3"/>
<circle cx="2526" cy="659" r="16" fill="#efece3" stroke="#1a1a1a" stroke-width="1.6"/>
<circle cx="2497" cy="672" r="16" fill="#efece3" stroke="#1a1a1a" stroke-width="1.6"/>
<circle cx="2472" cy="656" r="16" fill="#efece3" stroke="#1a1a1a" stroke-width="1.6"/>
<circle cx="2474" cy="621" r="16" fill="#efece3" stroke="#1a1a1a" stroke-width="1.6"/>
<circle cx="2503" cy="608" r="16" fill="#efece3" stroke="#1a1a1a" stroke-width="1.6"/>
<circle cx="2528" cy="624" r="16" fill="#efece3" stroke="#1a1a1a" stroke-width="1.6"/>
<circle cx="2500" cy="640" r="28" fill="#efece3" stroke="#1a1a1a" stroke-width="2"/>
<line x1="2620" y1="672" x2="2620" y2="716" stroke="#1a1a1a" stroke-width="3"/>
<circle cx="2649" cy="660" r="18" fill="#efece3" stroke="#1a1a1a" stroke-width="1.6"/>
<circle cx="2617" cy="676" r="18" fill="#efece3" stroke="#1a1a1a" stroke-width="1.6"/>
<circle cx="2589" cy="658" r="18" fill="#efece3" stroke="#1a1a1a" stroke-width="1.6"/>
<circle cx="2591" cy="620" r="18" fill="#efece3" stroke="#1a1a1a" stroke-width="1.6"/>
<circle cx="2623" cy="604" r="18" fill="#efece3" stroke="#1a1a1a" stroke-width="1.6"/>
<circle cx="2651" cy="622" r="18" fill="#efece3" stroke="#1a1a1a" stroke-width="1.6"/>
<circle cx="2620" cy="640" r="32" fill="#efece3" stroke="#1a1a1a" stroke-width="2"/>
<line x1="2740" y1="667" x2="2740" y2="705" stroke="#1a1a1a" stroke-width="3"/>
<circle cx="2765" cy="658" r="15" fill="#efece3" stroke="#1a1a1a" stroke-width="1.6"/>
<circle cx="2737" cy="670" r="15" fill="#efece3" stroke="#1a1a1a" stroke-width="1.6"/>
<circle cx="2713" cy="655" r="15" fill="#efece3" stroke="#1a1a1a" stroke-width="1.6"/>
<circle cx="2715" cy="622" r="15" fill="#efece3" stroke="#1a1a1a" stroke-width="1.6"/>
<circle cx="2743" cy="610" r="15" fill="#efece3" stroke="#1a1a1a" stroke-width="1.6"/>
<circle cx="2767" cy="625" r="15" fill="#efece3" stroke="#1a1a1a" stroke-width="1.6"/>
<circle cx="2740" cy="640" r="27" fill="#efece3" stroke="#1a1a1a" stroke-width="2"/>
<text x="2500" y="470" font-family="Georgia,serif" font-size="25" font-style="italic" fill="#555" text-anchor="middle">the tree she takes bark from</text>
<path d="M2750,1380 C2770,1100 2800,760 2820,480" fill="none" stroke="#1a1a1a" stroke-width="15" stroke-linecap="round" stroke-dasharray="26 18" opacity=".5"/>
<text x="2855" y="760" font-family="Georgia,serif" font-size="25" font-style="italic" fill="#555" text-anchor="end">the track</text>
<text x="2650" y="140" font-family="Georgia,serif" font-size="32" font-style="normal" fill="#1a1a1a" text-anchor="middle">THE UNCOMPLETED HOUSES</text>
<rect x="2300" y="230" width="120" height="130" fill="none" stroke="#1a1a1a" stroke-width="2.4"/>
<line x1="2300" y1="336" x2="2420" y2="336" stroke="#1a1a1a" stroke-width="1.3" stroke-dasharray="5 4"/>
<line x1="2318" y1="230" x2="2324" y2="210" stroke="#1a1a1a" stroke-width="1.8"/>
<line x1="2345" y1="230" x2="2351" y2="210" stroke="#1a1a1a" stroke-width="1.8"/>
<line x1="2373" y1="230" x2="2379" y2="210" stroke="#1a1a1a" stroke-width="1.8"/>
<line x1="2400" y1="230" x2="2406" y2="210" stroke="#1a1a1a" stroke-width="1.8"/>
<line x1="2427" y1="230" x2="2433" y2="210" stroke="#1a1a1a" stroke-width="1.8"/>
<rect x="2326" y="268" width="38" height="44" fill="#f7f5f0" stroke="#1a1a1a" stroke-width="1.6"/>
<rect x="2380" y="268" width="38" height="44" fill="#f7f5f0" stroke="#1a1a1a" stroke-width="1.6"/>
<text x="2360.0" y="186" font-family="Georgia,serif" font-size="28" font-style="normal" fill="#333" text-anchor="middle">1</text>
<rect x="2440" y="230" width="120" height="130" fill="none" stroke="#1a1a1a" stroke-width="2.4"/>
<line x1="2440" y1="336" x2="2560" y2="336" stroke="#1a1a1a" stroke-width="1.3" stroke-dasharray="5 4"/>
<line x1="2458" y1="230" x2="2464" y2="210" stroke="#1a1a1a" stroke-width="1.8"/>
<line x1="2485" y1="230" x2="2491" y2="210" stroke="#1a1a1a" stroke-width="1.8"/>
<line x1="2513" y1="230" x2="2519" y2="210" stroke="#1a1a1a" stroke-width="1.8"/>
<line x1="2540" y1="230" x2="2546" y2="210" stroke="#1a1a1a" stroke-width="1.8"/>
<line x1="2567" y1="230" x2="2573" y2="210" stroke="#1a1a1a" stroke-width="1.8"/>
<rect x="2466" y="268" width="38" height="44" fill="#f7f5f0" stroke="#1a1a1a" stroke-width="1.6"/>
<rect x="2520" y="268" width="38" height="44" fill="#f7f5f0" stroke="#1a1a1a" stroke-width="1.6"/>
<text x="2500.0" y="186" font-family="Georgia,serif" font-size="28" font-style="normal" fill="#333" text-anchor="middle">2</text>
<rect x="2580" y="230" width="120" height="130" fill="none" stroke="#1a1a1a" stroke-width="2.4"/>
<line x1="2580" y1="336" x2="2700" y2="336" stroke="#1a1a1a" stroke-width="1.3" stroke-dasharray="5 4"/>
<line x1="2598" y1="230" x2="2604" y2="210" stroke="#1a1a1a" stroke-width="1.8"/>
<line x1="2625" y1="230" x2="2631" y2="210" stroke="#1a1a1a" stroke-width="1.8"/>
<line x1="2653" y1="230" x2="2659" y2="210" stroke="#1a1a1a" stroke-width="1.8"/>
<line x1="2680" y1="230" x2="2686" y2="210" stroke="#1a1a1a" stroke-width="1.8"/>
<line x1="2707" y1="230" x2="2713" y2="210" stroke="#1a1a1a" stroke-width="1.8"/>
<rect x="2606" y="268" width="38" height="44" fill="#f7f5f0" stroke="#1a1a1a" stroke-width="1.6"/>
<rect x="2660" y="268" width="38" height="44" fill="#f7f5f0" stroke="#1a1a1a" stroke-width="1.6"/>
<text x="2640.0" y="186" font-family="Georgia,serif" font-size="28" font-style="normal" fill="#333" text-anchor="middle">3</text>
<rect x="2572" y="220" width="136" height="154" fill="none" stroke="#1a1a1a" stroke-width="4" stroke-dasharray="14 8"/>
<rect x="2691" y="282" width="30" height="52" fill="#1a1a1a"/>
<text x="2640.0" y="432" font-family="Georgia,serif" font-size="25" font-style="italic" fill="#1a1a1a" text-anchor="middle">the third house</text>
<rect x="2720" y="230" width="120" height="130" fill="none" stroke="#1a1a1a" stroke-width="2.4"/>
<line x1="2720" y1="336" x2="2840" y2="336" stroke="#1a1a1a" stroke-width="1.3" stroke-dasharray="5 4"/>
<line x1="2738" y1="230" x2="2744" y2="210" stroke="#1a1a1a" stroke-width="1.8"/>
<line x1="2765" y1="230" x2="2771" y2="210" stroke="#1a1a1a" stroke-width="1.8"/>
<line x1="2793" y1="230" x2="2799" y2="210" stroke="#1a1a1a" stroke-width="1.8"/>
<line x1="2820" y1="230" x2="2826" y2="210" stroke="#1a1a1a" stroke-width="1.8"/>
<line x1="2847" y1="230" x2="2853" y2="210" stroke="#1a1a1a" stroke-width="1.8"/>
<rect x="2746" y="268" width="38" height="44" fill="#f7f5f0" stroke="#1a1a1a" stroke-width="1.6"/>
<rect x="2800" y="268" width="38" height="44" fill="#f7f5f0" stroke="#1a1a1a" stroke-width="1.6"/>
<text x="2780.0" y="186" font-family="Georgia,serif" font-size="28" font-style="normal" fill="#333" text-anchor="middle">4</text>
<rect x="2050" y="1620" width="400" height="210" fill="#ebe7de" stroke="#1a1a1a" stroke-width="2.8"/>
<line x1="2050" y1="1670" x2="2450" y2="1670" stroke="#1a1a1a" stroke-width="1.4"/>
<rect x="2082" y="1700" width="44" height="58" fill="#f7f5f0" stroke="#1a1a1a" stroke-width="1.4"/>
<rect x="2172" y="1700" width="44" height="58" fill="#f7f5f0" stroke="#1a1a1a" stroke-width="1.4"/>
<rect x="2262" y="1700" width="44" height="58" fill="#f7f5f0" stroke="#1a1a1a" stroke-width="1.4"/>
<rect x="2352" y="1700" width="44" height="58" fill="#f7f5f0" stroke="#1a1a1a" stroke-width="1.4"/>
<text x="2250" y="1590" font-family="Georgia,serif" font-size="32" font-style="normal" fill="#1a1a1a" text-anchor="middle">MALLAM TOWN POLICE POST</text>
<text x="2250" y="1880" font-family="Georgia,serif" font-size="25" font-style="italic" fill="#555" text-anchor="middle">squat concrete, paint peeling</text>
<line x1="2150" y1="1520" x2="2150" y2="1620" stroke="#1a1a1a" stroke-width="1.6" stroke-dasharray="10 9"/>
<circle cx="2800" cy="1900" r="62" fill="none" stroke="#1a1a1a" stroke-width="2.2"/>
<path d="M2800,1850 L2816,1908 L2800,1896 L2784,1908 Z" fill="#1a1a1a"/>
<text x="2800" y="1824" font-family="Georgia,serif" font-size="28" font-style="normal" fill="#1a1a1a" text-anchor="middle">N</text></svg>